<?xml version="1.0" encoding="utf-8"?>
<!-- Generator: Adobe Illustrator 18.0.0, SVG Export Plug-In . SVG Version: 6.00 Build 0)  -->
<!DOCTYPE svg PUBLIC "-//W3C//DTD SVG 1.1//EN" "http://www.w3.org/Graphics/SVG/1.1/DTD/svg11.dtd">
<svg version="1.1" id="Icons" xmlns="http://www.w3.org/2000/svg" xmlns:xlink="http://www.w3.org/1999/xlink" x="0px" y="0px"
	 viewBox="0 0 100 100" enable-background="new 0 0 100 100" xml:space="preserve">
<path id="Facebook" display="none" fill="#999999" d="M38.1,22.4c0,2.3,0,12.4,0,12.4H29V50h9.1v45h18.6V50h12.5
	c0,0,1.2-7.3,1.7-15.2c-1.6,0-14.2,0-14.2,0s0-8.8,0-10.4c0-1.5,2-3.6,4-3.6c2,0,6.2,0,10.2,0c0-2.1,0-9.2,0-15.8
	c-5.2,0-11.2,0-13.8,0C37.6,5,38.1,20.2,38.1,22.4z"/>
<path display="none" fill="#999999" d="M97,19.1c-3.5,1.5-7.2,2.6-11.1,3.1c4-2.4,7.1-6.2,8.5-10.7c-3.7,2.2-7.9,3.8-12.3,4.7
	c-3.5-3.8-8.6-6.1-14.1-6.1c-10.7,0-19.4,8.7-19.4,19.4c0,1.5,0.2,3,0.5,4.4C33,33,18.7,25.3,9.1,13.5c-1.7,2.9-2.6,6.2-2.6,9.7
	c0,6.7,3.4,12.7,8.6,16.1C12,39.3,9,38.4,6.3,37v0.2c0,9.4,6.7,17.2,15.5,19c-1.6,0.4-3.3,0.7-5.1,0.7c-1.3,0-2.5-0.1-3.6-0.4
	c2.5,7.7,9.6,13.3,18.1,13.5c-6.6,5.2-15,8.3-24.1,8.3c-1.6,0-3.1-0.1-4.6-0.3c8.6,5.5,18.8,8.7,29.7,8.7
	c35.6,0,55.1-29.5,55.1-55.1l-0.1-2.5C91.1,26.4,94.4,23,97,19.1z"/>
<path fill="#999999" d="M9.8,18.8c0.7-0.3,1.4-0.4,2.2-0.4h75.6c0.8,0,1.5,0.2,2.2,0.4L55.9,50.7c-3.4,3.3-8.9,3.3-12.3,0L9.8,18.8z
	 M93.1,75.5c0.6-1,0.9-2.1,0.9-3.3V24.8c0-0.9-0.2-1.7-0.5-2.4L61.8,52.2L93.1,75.5z M59,54.8c-2.6,2.3-5.9,3.4-9.2,3.4
	c-3.3,0-6.5-1.1-9.2-3.4L9.5,78.1c0.8,0.3,1.6,0.5,2.5,0.5h75.6c0.9,0,1.7-0.2,2.5-0.5L59,54.8z M6.1,22.3c-0.3,0.8-0.5,1.6-0.5,2.4
	v47.4c0,1.2,0.4,2.3,0.9,3.3l31.2-23.3L6.1,22.3z"/>
</svg>
